<svg width="82" height="80" viewBox="0 0 82 80" fill="none" xmlns="http://www.w3.org/2000/svg" xmlns:xlink="http://www.w3.org/1999/xlink">
<path d="M80.25,74.297C80.25,77.057 78.01,79.297 75.25,79.297L5.25,79.297C2.49,79.297 0.25,77.057 0.25,74.297L0.25,4.297C0.25,1.537 2.49,-0.703 5.25,-0.703L75.25,-0.703C78.01,-0.703 80.25,1.537 80.25,4.297L80.25,74.297Z" fill="#3B5998"/>
<path d="M55.25,79.297L55.25,49.297L65.25,49.297L67.75,36.797L55.25,36.797L55.25,31.797C55.25,26.797 57.755,24.297 62.75,24.297L67.75,24.297L67.75,11.797C65.25,11.797 62.15,11.797 57.75,11.797C48.563,11.797 42.75,18.999 42.75,29.297L42.75,36.797L32.75,36.797L32.75,49.297L42.75,49.297L42.75,79.297L55.25,79.297Z" fill="#FFFFFF"/>
</svg>
