<svg width="82" height="80" viewBox="0 0 82 80" fill="none" xmlns="http://www.w3.org/2000/svg" xmlns:xlink="http://www.w3.org/1999/xlink">
<path d="M66.402,17.945C66.402,20.596 64.253,22.745 61.602,22.745C58.952,22.745 56.802,20.596 56.802,17.945C56.802,15.294 58.952,13.145 61.602,13.145C64.254,13.145 66.402,15.294 66.402,17.945ZM40.25,52.63C32.887,52.63 26.917,46.66 26.917,39.297C26.917,31.933 32.887,25.963 40.25,25.963C47.614,25.963 53.584,31.933 53.584,39.297C53.584,46.66 47.614,52.63 40.25,52.63ZM40.25,18.756C28.906,18.756 19.71,27.952 19.71,39.297C19.71,50.641 28.906,59.837 40.25,59.837C51.595,59.837 60.791,50.641 60.791,39.297C60.791,27.952 51.595,18.756 40.25,18.756ZM40.25,6.504C50.931,6.504 52.196,6.545 56.414,6.737C60.314,6.915 62.432,7.567 63.841,8.115C65.708,8.84 67.04,9.707 68.44,11.107C69.84,12.507 70.707,13.839 71.433,15.707C71.98,17.116 72.632,19.234 72.81,23.134C73.003,27.352 73.044,28.617 73.044,39.298C73.044,49.978 73.003,51.243 72.81,55.461C72.632,59.361 71.981,61.479 71.433,62.888C70.707,64.755 69.84,66.088 68.44,67.488C67.041,68.888 65.709,69.755 63.841,70.48C62.432,71.028 60.314,71.68 56.414,71.858C52.196,72.05 50.931,72.091 40.25,72.091C29.569,72.091 28.304,72.05 24.087,71.858C20.187,71.68 18.069,71.028 16.659,70.48C14.792,69.755 13.46,68.888 12.06,67.488C10.66,66.088 9.793,64.756 9.067,62.888C8.52,61.479 7.868,59.361 7.69,55.461C7.497,51.243 7.457,49.978 7.457,39.298C7.457,28.617 7.497,27.352 7.69,23.134C7.868,19.234 8.519,17.116 9.067,15.707C9.793,13.84 10.66,12.507 12.06,11.107C13.459,9.707 14.792,8.84 16.659,8.115C18.069,7.567 20.187,6.915 24.087,6.737C28.305,6.545 29.57,6.504 40.25,6.504ZM40.25,-0.703C29.387,-0.703 28.025,-0.657 23.759,-0.463C19.501,-0.268 16.593,0.408 14.049,1.397C11.419,2.419 9.188,3.787 6.964,6.01C4.74,8.234 3.372,10.465 2.35,13.095C1.362,15.64 0.685,18.547 0.491,22.805C0.297,27.071 0.25,28.433 0.25,39.297C0.25,50.16 0.297,51.522 0.491,55.788C0.685,60.046 1.362,62.953 2.35,65.498C3.372,68.128 4.74,70.359 6.964,72.583C9.188,74.807 11.419,76.174 14.049,77.197C16.594,78.185 19.501,78.862 23.759,79.056C28.025,79.25 29.387,79.297 40.25,79.297C51.114,79.297 52.476,79.25 56.742,79.056C61,78.862 63.907,78.185 66.452,77.197C69.082,76.174 71.313,74.807 73.537,72.583C75.76,70.359 77.128,68.128 78.15,65.498C79.139,62.953 79.815,60.046 80.01,55.788C80.204,51.522 80.25,50.16 80.25,39.297C80.25,28.433 80.204,27.071 80.01,22.805C79.815,18.547 79.139,15.64 78.15,13.095C77.128,10.465 75.76,8.234 73.537,6.01C71.313,3.787 69.082,2.419 66.452,1.397C63.907,0.408 61,-0.268 56.742,-0.463C52.476,-0.657 51.114,-0.703 40.25,-0.703Z" clip-rule="evenodd" fill-rule="evenodd" fill="url(#pf_0_14_25)"/>
<defs>
<radialGradient id="pf_0_14_25" cx="0" cy="0" r="1" gradientUnits="userSpaceOnUse" gradientTransform="matrix(51.109967 0 0 51.109967 6.097 39.787)">
<stop stop-color="#FFB140"/>
<stop offset="0.256" stop-color="#FF5445"/>
<stop offset="0.599" stop-color="#FC2B82"/>
<stop offset="1" stop-color="#8E40B7"/>
</radialGradient>
</defs>
</svg>
