<svg width="82" height="80" viewBox="0 0 82 80" fill="none" xmlns="http://www.w3.org/2000/svg" xmlns:xlink="http://www.w3.org/1999/xlink">
<path d="M40.25,-0.703C32.339,-0.703 24.606,1.643 18.028,6.038C11.45,10.433 6.323,16.68 3.295,23.989C0.268,31.298 -0.524,39.341 1.019,47.1C2.562,54.859 6.372,61.987 11.966,67.581C17.56,73.175 24.688,76.985 32.447,78.528C40.206,80.071 48.249,79.279 55.558,76.252C62.867,73.224 69.114,68.097 73.509,61.519C77.904,54.941 80.25,47.208 80.25,39.297C80.251,34.044 79.217,28.842 77.206,23.989C75.196,19.136 72.25,14.726 68.536,11.011C64.821,7.297 60.411,4.351 55.558,2.341C50.705,0.331 45.503,-0.704 40.25,-0.703ZM52.968,59.906C52.819,60.28 52.591,60.617 52.3,60.895C52.01,61.173 51.663,61.386 51.283,61.519C50.904,61.652 50.5,61.702 50.1,61.667C49.699,61.631 49.311,61.51 48.96,61.312L38.102,52.875L31.132,59.305C30.971,59.424 30.782,59.501 30.582,59.528C30.383,59.555 30.18,59.532 29.992,59.46L31.328,47.507L31.371,47.54L31.399,47.304C31.399,47.304 50.939,29.514 51.735,28.756C52.54,28 52.275,27.836 52.275,27.836C52.32,26.914 50.828,27.836 50.828,27.836L24.938,44.493L14.156,40.821C14.156,40.821 12.5,40.227 12.344,38.921C12.18,37.625 14.21,36.921 14.21,36.921L57.078,19.891C57.078,19.891 60.602,18.321 60.602,20.921L52.968,59.906Z" fill="#FFFFFF"/>
</svg>
