<svg width="74" height="74" viewBox="0 0 74 74" fill="none" xmlns="http://www.w3.org/2000/svg" xmlns:xlink="http://www.w3.org/1999/xlink">
<path d="M37.43,33.062L23.879,14.101L16.652,14.101L33.438,37.587L35.551,40.541L49.919,60.662L57.147,60.662L39.534,36.016L37.43,33.062Z" fill="#000000"/>
<path d="M67.45,0.63L6.384,0.63C2.997,0.63 0.25,3.376 0.25,6.764L0.25,67.829C0.25,71.217 2.997,73.963 6.384,73.963L67.45,73.963C70.838,73.963 73.584,71.217 73.584,67.829L73.584,6.764C73.584,3.376 70.838,0.63 67.45,0.63ZM47.702,63.963L33.16,43.253L14.955,63.963L10.25,63.963L31.073,40.281L10.25,10.63L26.133,10.63L39.9,30.236L57.149,10.63L61.854,10.63L41.997,33.215L63.584,63.963L47.702,63.963Z" fill="#000000"/>
</svg>
