<svg width="62" height="62" viewBox="0 0 62 62" fill="none" xmlns="http://www.w3.org/2000/svg" xmlns:xlink="http://www.w3.org/1999/xlink">
<path d="M32.783,31.155C32.308,31.583 31.691,31.821 31.052,31.821C30.412,31.821 29.796,31.583 29.321,31.155L7.414,11.238C8.274,10.649 9.291,10.333 10.333,10.333L51.667,10.333C52.709,10.333 53.726,10.649 54.586,11.238L32.783,31.155Z" fill="#FFFFFF"/>
<path d="M56.833,16.172L56.833,43.917C56.833,45.972 56.017,47.943 54.563,49.397C53.11,50.85 51.139,51.667 49.083,51.667L12.917,51.667C10.861,51.667 8.89,50.85 7.437,49.397C5.983,47.943 5.167,45.972 5.167,43.917L5.167,16.172L27.59,36.632C28.536,37.453 29.747,37.903 31,37.897C32.268,37.895 33.491,37.426 34.436,36.58L56.833,16.172Z" fill="#FFFFFF"/>
</svg>
