<svg width="88" height="84" viewBox="0 0 88 84" fill="none" xmlns="http://www.w3.org/2000/svg" xmlns:xlink="http://www.w3.org/1999/xlink">
<path d="M35.693,83.469C39.658,83.469 42.873,80.255 42.873,76.29C42.873,72.325 39.658,69.11 35.693,69.11C31.728,69.11 28.514,72.325 28.514,76.29C28.514,80.255 31.728,83.469 35.693,83.469Z" fill="#9F9F9F"/>
<path d="M70.565,83.469C74.53,83.469 77.744,80.255 77.744,76.29C77.744,72.325 74.53,69.11 70.565,69.11C66.6,69.11 63.385,72.325 63.385,76.29C63.385,80.255 66.6,83.469 70.565,83.469Z" fill="#9F9F9F"/>
<path d="M6.117,0.141C4.279,-1.084 1.796,-0.588 0.57,1.251C-0.655,3.089 -0.159,5.572 1.68,6.798L6.117,0.141ZM22.36,15.777L26.26,14.891C26.033,13.891 25.431,13.017 24.579,12.449L22.36,15.777ZM32.616,60.905L28.716,61.792C29.13,63.613 30.749,64.905 32.616,64.905L32.616,60.905ZM73.642,60.905L73.642,64.905C75.416,64.905 76.979,63.736 77.479,62.034L73.642,60.905ZM83.898,26.034L87.736,27.162C88.092,25.953 87.856,24.646 87.101,23.637C86.346,22.628 85.159,22.033 83.898,22.033L83.898,26.034ZM44.924,22.033C42.715,22.033 40.924,23.824 40.924,26.034C40.924,28.243 42.715,30.034 44.924,30.034L44.924,22.033ZM44.924,40.495C42.715,40.495 40.924,42.286 40.924,44.495C40.924,46.704 42.715,48.495 44.924,48.495L44.924,40.495ZM77.745,48.495C79.954,48.495 81.745,46.704 81.745,44.495C81.745,42.286 79.954,40.495 77.745,40.495L77.745,48.495ZM1.68,6.798L20.141,19.105L24.579,12.449L6.117,0.141L1.68,6.798ZM18.459,16.664L28.716,61.792L36.517,60.019L26.26,14.891L18.459,16.664ZM32.616,64.905L73.642,64.905L73.642,56.905L32.616,56.905L32.616,64.905ZM77.479,62.034L87.736,27.162L80.061,24.905L69.805,59.777L77.479,62.034ZM83.898,22.033L44.924,22.033L44.924,30.034L83.898,30.034L83.898,22.033ZM44.924,48.495L77.745,48.495L77.745,40.495L44.924,40.495L44.924,48.495Z" fill="#9F9F9F"/>
</svg>
