<svg width="94" height="94" viewBox="0 0 94 94" fill="none" xmlns="http://www.w3.org/2000/svg" xmlns:xlink="http://www.w3.org/1999/xlink">
<path d="M46.104,-0.838C37.249,-0.838 29.801,5.381 27.86,13.664C25.575,10.584 21.944,8.549 17.844,8.549C10.978,8.549 5.344,14.182 5.344,21.049C5.344,23.31 6.001,25.412 7.066,27.25L62.333,27.25C63.931,24.496 64.86,21.312 64.86,17.912C64.86,7.593 56.422,-0.838 46.104,-0.838Z" fill="#D9D9D9"/>
<path d="M2.25,30.375C0.524,30.375 -0.875,31.774 -0.875,33.5L-0.875,89.75C-0.875,91.475 0.524,92.874 2.25,92.875L64.75,92.875C66.476,92.874 67.875,91.475 67.875,89.75L67.875,33.5C67.875,31.774 66.476,30.375 64.75,30.375L2.25,30.375ZM11.625,39.75L17.875,39.75C22.136,39.654 22.136,46.095 17.875,46L11.625,46C7.364,46.095 7.364,39.654 11.625,39.75Z" fill="#D9D9D9"/>
<path d="M83.5,39.75C79.455,39.75 76.006,42.389 74.705,46.012L71,46.012L71,80.381L74.711,80.381C76.017,83.995 79.462,86.625 83.5,86.625L89.75,86.625C90.579,86.625 91.374,86.296 91.96,85.71C92.546,85.124 92.875,84.329 92.875,83.5L92.875,42.875C92.875,42.046 92.546,41.251 91.96,40.665C91.374,40.079 90.579,39.75 89.75,39.75L83.5,39.75Z" fill="#D9D9D9"/>
</svg>
