<svg width="80" height="80" viewBox="0 0 80 80" fill="none" xmlns="http://www.w3.org/2000/svg" xmlns:xlink="http://www.w3.org/1999/xlink">
<path d="M40,0C18.231,0 0,16.244 0,36.772C0,46.461 4.182,55.152 10.769,61.653C9.967,63.827 8.83,65.852 7.403,67.648C5.51,70.034 3.419,72.243 1.154,74.248C0.657,74.662 0.296,75.227 0.121,75.863C-0.054,76.5 -0.035,77.177 0.176,77.801C0.387,78.426 0.78,78.967 1.299,79.35C1.819,79.733 2.44,79.939 3.077,79.94C9.892,79.94 14.794,79.86 19.231,78.641C23.2,77.548 26.612,75.258 30.095,72.045C33.265,72.835 36.535,73.544 40,73.544C61.769,73.544 80,57.301 80,36.772C80,16.244 61.769,0 40,0ZM40,6.395C58.846,6.395 73.846,20.209 73.846,36.772C73.846,53.336 58.846,67.149 40,67.149C36.649,67.149 33.169,66.548 30,65.65C29.493,65.517 28.962,65.521 28.457,65.661C27.952,65.801 27.49,66.072 27.114,66.449C23.652,69.899 21.102,71.508 17.692,72.445C16.123,72.876 13.095,72.774 10.96,72.947C11.391,72.441 11.794,72.173 12.212,71.645C14.631,68.575 16.837,65.33 17.502,61.653C17.593,61.101 17.543,60.533 17.358,60.008C17.172,59.482 16.857,59.016 16.443,58.657C9.997,53.125 6.154,45.371 6.154,36.772C6.154,20.209 21.154,6.395 40,6.395ZM34.135,18.885C33.594,19.011 33.095,19.287 32.692,19.684L28.077,24.183L32.212,28.877L35.865,25.28L43.268,25.28L46.154,28.682L46.154,33.38L38.268,38.873C37.846,39.171 37.503,39.574 37.268,40.044C37.033,40.515 36.915,41.039 36.923,41.569L36.923,47.964L43.077,47.964L43.077,43.366L50.963,37.872C51.385,37.574 51.729,37.171 51.964,36.699C52.198,36.228 52.317,35.704 52.308,35.173L52.308,27.48C52.304,26.707 52.03,25.962 51.538,25.382L46.923,19.985C46.636,19.641 46.281,19.366 45.883,19.176C45.486,18.986 45.053,18.887 44.615,18.885L34.806,18.885C34.583,18.86 34.358,18.86 34.135,18.885ZM36.923,51.161L36.923,57.557L43.077,57.557L43.077,51.161L36.923,51.161Z" fill="#9F9F9F"/>
</svg>
